<svg width="17" height="17" viewBox="0 0 17 17" fill="none" xmlns="http://www.w3.org/2000/svg">
<path d="M7.27907 1L6.7558 2.32821L5.7093 1.44585C5.53489 1.70588 4.66279 3.64706 5.53489 5.05882L6.37545 6.41955C6.39164 6.43418 6.40232 6.45113 6.40698 6.47059L6.37545 6.41955C6.09794 6.16881 4.12555 6.38943 3.26744 6.82353C2.91861 7 1.34884 7.70588 1 8.58824L2.39535 9.11765C2.16281 9.29412 1.59309 9.71765 1.17448 10C0.755875 10.2824 2.39535 10.8824 3.44192 10.8824L6.0582 10.5294C5.84886 10.9275 5.18605 12.1176 5.01163 12.9153C4.89511 13.4481 5.01163 14.7647 5.7093 15.4706L6.75581 14.5882L6.93024 16C7.45349 15.6471 8.15117 15.2941 8.84884 14.2353C8.92651 14.1174 9.54654 12.8234 9.72093 12.1176C9.54652 11.9412 10.8256 13.1176 11.4651 13.5294C11.9884 13.8663 13.2093 14 14.0814 14.0588L13.5581 12.8235L14.9535 12.9153C14.9535 12.6471 14.9535 11.7647 14.7791 11.327C14.7269 11.1961 14.1977 10.4118 13.7326 9.82353C13.3975 9.53299 12.7867 8.78805 12.5812 8.61244C12.5367 8.6164 12.5116 8.6093 12.5116 8.58824C12.5116 8.56327 12.5371 8.57473 12.5812 8.61244C12.9095 8.58325 14.2929 7.95186 14.4302 7.88235C14.7791 7.70588 15.6512 7 16 6.47059L14.7791 6.11765L15.3023 5.23529C14.9535 5.05882 13.7326 4.70588 12.5116 4.88235C11.821 4.98218 10.3639 5.41103 9.54907 5.93952C9.54756 5.9537 9.54652 5.95479 9.54652 5.94118L9.54907 5.93952C9.56721 5.7699 9.65365 3.72821 8.84884 2.58824C8.84884 2.58824 7.97675 1.47059 7.27907 1Z" fill="#EFA9C3"/>
<path d="M9.54652 5.94118C9.54652 5.95479 9.54756 5.9537 9.54907 5.93952M9.54652 5.94118C9.54737 5.94062 9.54822 5.94007 9.54907 5.93952M9.54652 5.94118L9.54907 5.93952M9.72093 12.1176C9.54652 11.9412 10.8256 13.1176 11.4651 13.5294C11.9884 13.8663 13.2093 14 14.0814 14.0588L13.5581 12.8235L14.9535 12.9153C14.9535 12.6471 14.9535 11.7647 14.7791 11.327C14.7269 11.1961 14.1977 10.4118 13.7326 9.82353C13.3975 9.53299 12.7867 8.78805 12.5812 8.61244M9.72093 12.1176C9.54651 12.8235 8.92624 14.1178 8.84884 14.2353M9.72093 12.1176C9.54654 12.8234 8.92651 14.1174 8.84884 14.2353M8.84884 14.2353C8.15117 15.2941 7.45349 15.6471 6.93024 16L6.75581 14.5882L5.7093 15.4706C5.01163 14.7647 4.89511 13.4481 5.01163 12.9153C5.18605 12.1176 5.84886 10.9275 6.0582 10.5294M6.0582 10.5294C6.11958 10.4127 6.08669 10.4639 6.0582 10.5294ZM6.0582 10.5294C5.82802 11.0588 6.16407 10.615 6.0582 10.5294ZM6.0582 10.5294L3.44192 10.8824C2.39535 10.8824 0.755875 10.2824 1.17448 10C1.59309 9.71765 2.16281 9.29412 2.39535 9.11765L1 8.58824C1.34884 7.70588 2.91861 7 3.26744 6.82353C4.12555 6.38943 6.09794 6.16881 6.37545 6.41955M6.37545 6.41955L5.53489 5.05882C4.66279 3.64706 5.53489 1.70588 5.7093 1.44585L6.7558 2.32821L7.27907 1C7.97675 1.47059 8.84884 2.58824 8.84884 2.58824C9.65365 3.72821 9.56721 5.7699 9.54907 5.93952M6.37545 6.41955C6.39164 6.43418 6.40232 6.45113 6.40698 6.47059L6.37545 6.41955ZM12.5812 8.61244C12.5367 8.6164 12.5116 8.6093 12.5116 8.58824C12.5116 8.56327 12.5371 8.57473 12.5812 8.61244ZM12.5812 8.61244C12.9095 8.58325 14.2929 7.95186 14.4302 7.88235C14.7791 7.70588 15.6512 7 16 6.47059L14.7791 6.11765L15.3023 5.23529C14.9535 5.05882 13.7326 4.70588 12.5116 4.88235C11.821 4.98218 10.3639 5.41103 9.54907 5.93952" stroke="#EFA9C3" stroke-width="0.355724"/>
<path d="M6.75943 3.18385L7.20138 3.71744L7.3752 2.65027C8.41136 3.14099 8.65691 4.16004 8.67145 4.25103L9.28722 6.20751C9.98249 5.7925 11.3731 5.49606 11.3731 5.49606C12.2422 5.37749 13.8065 5.3182 13.6327 5.67392C13.3546 6.24308 13.0533 6.50395 12.9374 6.56323L14.0599 6.78678C13.2487 7.67609 12.6694 8.92113 11.2788 8.5654C12.4666 9.2217 13.166 10.7746 13.2851 11.5434C13.3466 11.9409 12.8431 11.7212 12.8431 11.7212L12.0683 11.5434L12.416 12.6105C11.1992 12.4327 9.46112 11.7212 9.2873 11.3655C9.11348 11.9584 8.76592 12.729 8.59202 12.9663C8.24438 13.4406 7.68815 14.6737 7.5491 14.3892C7.41004 14.1046 6.91168 13.2034 6.85374 12.9663L6.15846 13.6777C5.9267 13.0256 5.63716 12.7884 5.8109 11.8991L6.33236 9.94261C6.33236 9.94261 4.9418 10.2983 4.59416 10.2983C4.24652 10.2983 2.85596 9.72918 2.85596 9.58689C2.85596 9.4446 3.31948 8.93473 3.55124 8.69758L2.68214 8.34185C3.2036 7.80827 3.89888 7.27468 4.24652 7.09682L4.9418 6.91896C5.21609 6.84879 6.41179 6.56323 6.41179 6.56323C6.41179 6.02965 6.20387 5.65711 6.15854 5.14034C6.11321 4.62357 6.30202 2.88676 6.33236 2.82813C6.4137 2.67095 6.75943 3.24314 6.75943 3.18385Z" fill="#F0CEDB"/>
<path d="M4.24652 7.09682C3.89888 7.27468 3.2036 7.80827 2.68214 8.34185L3.55124 8.69758C3.31948 8.93473 2.85596 9.4446 2.85596 9.58689C2.85596 9.72918 4.24652 10.2983 4.59416 10.2983C4.9418 10.2983 6.33236 9.94261 6.33236 9.94261L5.8109 11.8991C5.63716 12.7884 5.9267 13.0256 6.15846 13.6777L6.85374 12.9663C6.91168 13.2034 7.41004 14.1046 7.5491 14.3892C7.68815 14.6737 8.24438 13.4406 8.59202 12.9663C8.76592 12.729 9.11348 11.9584 9.2873 11.3655C9.46112 11.7212 11.1992 12.4327 12.416 12.6105L12.0683 11.5434L12.8431 11.7212C12.8431 11.7212 13.3466 11.9409 13.2851 11.5434C13.166 10.7746 12.4666 9.2217 11.2788 8.5654C12.6694 8.92113 13.2487 7.67609 14.0599 6.78678L12.9374 6.56323C13.0533 6.50395 13.3546 6.24308 13.6327 5.67392C13.8065 5.3182 12.2422 5.37749 11.3731 5.49606C11.3731 5.49606 9.98249 5.7925 9.28722 6.20751L8.67145 4.25103C8.65691 4.16004 8.41136 3.14099 7.3752 2.65027L7.20138 3.71744L6.75943 3.18385C6.75943 3.24314 6.4137 2.67095 6.33236 2.82813C6.30202 2.88676 6.11321 4.62357 6.15854 5.14034C6.20387 5.65711 6.41179 6.02965 6.41179 6.56323C6.41179 6.56323 5.21609 6.84879 4.9418 6.91896M4.24652 7.09682C4.59416 6.91896 4.66751 6.98913 4.9418 6.91896M4.24652 7.09682L4.9418 6.91896" stroke="#F0CEDB" stroke-width="0.355724"/>
<path d="M9.35699 8.4196C9.35699 8.98958 8.90544 9.45163 8.34842 9.45163C7.7914 9.45163 7.33984 8.98958 7.33984 8.4196C7.33984 7.84963 7.7914 7.38757 8.34842 7.38757C9.0208 7.38757 9.35699 7.84963 9.35699 8.4196Z" fill="#E20E5C" fill-opacity="0.8"/>
<ellipse cx="0.319199" cy="0.279803" rx="0.319199" ry="0.279803" transform="matrix(0.435316 0.900278 -0.892173 0.451694 10.3989 7.40625)" fill="#E20E5C" fill-opacity="0.8"/>
<ellipse cx="0.319777" cy="0.279281" rx="0.319777" ry="0.279281" transform="matrix(0.334788 -0.942293 0.937248 0.348663 9.72803 9.5769)" fill="#E20E5C" fill-opacity="0.8"/>
<ellipse cx="0.313952" cy="0.284455" rx="0.313952" ry="0.284455" transform="matrix(0.955123 -0.296211 0.283997 0.958825 8.53809 10.1981)" fill="#E20E5C" fill-opacity="0.8"/>
<ellipse cx="0.313827" cy="0.284564" rx="0.313827" ry="0.284564" transform="matrix(0.964303 0.264802 -0.253685 0.967287 7.15723 9.84631)" fill="#E20E5C" fill-opacity="0.8"/>
<ellipse cx="0.319307" cy="0.279705" rx="0.319307" ry="0.279705" transform="matrix(0.418277 0.908319 -0.900762 0.434313 6.56592 8.57764)" fill="#E20E5C" fill-opacity="0.8"/>
<ellipse cx="0.318072" cy="0.280815" rx="0.318072" ry="0.280815" transform="matrix(0.584588 -0.81133 0.798299 0.602262 6.20947 7.50732)" fill="#E20E5C" fill-opacity="0.8"/>
<ellipse cx="0.31358" cy="0.284779" rx="0.31358" ry="0.284779" transform="matrix(-0.982283 0.187404 -0.17926 -0.983802 8.16406 6.58667)" fill="#E20E5C" fill-opacity="0.8"/>
<ellipse cx="0.314181" cy="0.284255" rx="0.314181" ry="0.284255" transform="matrix(0.938022 0.346575 -0.332761 0.943011 9.12744 6.24609)" fill="#E20E5C" fill-opacity="0.8"/>
<rect width="0.191729" height="0.924074" transform="matrix(0.957963 -0.286891 0.274995 0.961446 7.80664 6.65784)" fill="#E20E5C" fill-opacity="0.8"/>
<rect width="0.192488" height="0.920543" transform="matrix(0.862145 0.506662 -0.489445 0.872034 9.19043 6.74011)" fill="#E20E5C" fill-opacity="0.8"/>
<rect width="0.195469" height="0.871388" transform="matrix(0.278237 0.960512 -0.956951 0.290248 10.0464 7.81421)" fill="#E20E5C" fill-opacity="0.8"/>
<rect width="0.194721" height="0.909986" transform="matrix(0.491503 -0.870876 0.860918 0.508744 9.06006 8.92944)" fill="#E20E5C" fill-opacity="0.8"/>
<rect width="0.191729" height="0.924074" transform="matrix(0.957963 -0.286891 0.274995 0.961446 8.53613 9.401)" fill="#E20E5C" fill-opacity="0.8"/>
<rect width="0.192371" height="0.921091" transform="matrix(0.877558 0.479471 -0.462621 0.886556 7.82227 9.18018)" fill="#E20E5C" fill-opacity="0.8"/>
<rect width="0.195402" height="0.801304" transform="matrix(0.267101 0.963669 -0.960375 0.278712 7.41553 8.58887)" fill="#E20E5C" fill-opacity="0.8"/>
<rect width="0.194764" height="0.879416" transform="matrix(0.481902 -0.876225 0.866587 0.499026 6.73242 7.58215)" fill="#E20E5C" fill-opacity="0.8"/>
</svg>
